<?xml version="1.0" encoding="iso-8859-1"?>
<!-- Generator: Adobe Illustrator 17.1.0, SVG Export Plug-In . SVG Version: 6.00 Build 0)  -->
<!DOCTYPE svg PUBLIC "-//W3C//DTD SVG 1.1//EN" "http://www.w3.org/Graphics/SVG/1.1/DTD/svg11.dtd">
<svg version="1.1" id="Capa_1" xmlns="http://www.w3.org/2000/svg" xmlns:xlink="http://www.w3.org/1999/xlink" width="64" height="64" x="0px" y="0px"
	 viewBox="0 0 377.67 377.67" style="enable-background:new 0 0 377.67 377.67;" xml:space="preserve">
<g>
	<rect x="112.356" y="112.356" width="152.957" height="152.958"/>
	<path d="M277.395,0H100.275C44.983,0,0,44.984,0,100.276v177.118c0,55.292,44.983,100.275,100.275,100.275h177.119
		c55.292,0,100.275-44.983,100.275-100.275V100.276C377.67,44.984,332.687,0,277.395,0z M315.313,280.314c0,19.299-15.701,35-35,35
		H97.356c-19.299,0-35-15.701-35-35V97.356c0-19.299,15.701-35,35-35h182.957c19.299,0,35,15.701,35,35V280.314z"/>
</g>
<g>
</g>
<g>
</g>
<g>
</g>
<g>
</g>
<g>
</g>
<g>
</g>
<g>
</g>
<g>
</g>
<g>
</g>
<g>
</g>
<g>
</g>
<g>
</g>
<g>
</g>
<g>
</g>
<g>
</g>
</svg>
